HIERARCHY
ROOT Hips
{
	OFFSET 0.000000 0.000000 0.000000
	CHANNELS 6 Xposition Yposition Zposition Yrotation Xrotation Zrotation
	JOINT Chest
	{
		OFFSET 0.000000 -0.009281 11.569106
		CHANNELS 3 Yrotation Xrotation Zrotation
		JOINT Chest2
		{
			OFFSET -0.000000 0.016865 9.269641
			CHANNELS 3 Yrotation Xrotation Zrotation
			JOINT Chest3
			{
				OFFSET -0.000000 0.000001 8.374491
				CHANNELS 3 Yrotation Xrotation Zrotation
				JOINT Chest4
				{
					OFFSET -0.000000 0.000001 8.374493
					CHANNELS 3 Yrotation Xrotation Zrotation
					JOINT Neck
					{
						OFFSET -0.000000 0.000002 12.152554
						CHANNELS 3 Yrotation Xrotation Zrotation
						JOINT Head
						{
							OFFSET -0.000000 0.040101 7.802319
							CHANNELS 3 Yrotation Xrotation Zrotation
							End Site
							{
								OFFSET -0.000000 0.020947 14.853096
							}
						}
					}
					JOINT RightCollar
					{
						OFFSET 2.894404 0.000001 6.791374
						CHANNELS 3 Yrotation Xrotation Zrotation
						JOINT RightShoulder
						{
							OFFSET 13.574684 0.000001 0.000000
							CHANNELS 3 Yrotation Xrotation Zrotation
							JOINT RightElbow
							{
								OFFSET 23.923903 0.000002 0.000000
								CHANNELS 3 Yrotation Xrotation Zrotation
								JOINT RightWrist
								{
									OFFSET 19.846718 0.012767 0.000000
									CHANNELS 3 Yrotation Xrotation Zrotation
									End Site
									{
										OFFSET 14.973145 0.000001 0.000000
									}
								}
							}
						}
					}
					JOINT LeftCollar
					{
						OFFSET -2.894404 0.000001 6.791374
						CHANNELS 3 Yrotation Xrotation Zrotation
						JOINT LeftShoulder
						{
							OFFSET -13.574684 -0.000001 0.000000
							CHANNELS 3 Yrotation Xrotation Zrotation
							JOINT LeftElbow
							{
								OFFSET -23.923903 -0.000002 0.000000
								CHANNELS 3 Yrotation Xrotation Zrotation
								JOINT LeftWrist
								{
									OFFSET -19.846718 0.012763 0.000000
									CHANNELS 3 Yrotation Xrotation Zrotation
									End Site
									{
										OFFSET -14.973145 -0.000001 0.000000
									}
								}
							}
						}
					}
				}
			}
		}
	}
	JOINT RightHip
	{
		OFFSET 9.469263 0.004643 0.045487
		CHANNELS 3 Yrotation Xrotation Zrotation
		JOINT RightKnee
		{
			OFFSET 0.000000 0.002661 -40.478676
			CHANNELS 3 Yrotation Xrotation Zrotation
			JOINT RightAnkle
			{
				OFFSET 0.000000 0.049106 -35.224068
				CHANNELS 3 Yrotation Xrotation Zrotation
				JOINT RightToe
				{
					OFFSET -0.000001 12.539529 -6.151390
					CHANNELS 3 Yrotation Xrotation Zrotation
					End Site
					{
						OFFSET -0.000001 5.044994 -1.291870
					}
				}
			}
		}
	}
	JOINT LeftHip
	{
		OFFSET -9.469263 0.004641 0.045487
		CHANNELS 3 Yrotation Xrotation Zrotation
		JOINT LeftKnee
		{
			OFFSET 0.000000 0.002661 -40.478676
			CHANNELS 3 Yrotation Xrotation Zrotation
			JOINT LeftAnkle
			{
				OFFSET 0.000000 0.049106 -35.224068
				CHANNELS 3 Yrotation Xrotation Zrotation
				JOINT LeftToe
				{
					OFFSET -0.000001 12.539529 -6.151390
					CHANNELS 3 Yrotation Xrotation Zrotation
					End Site
					{
						OFFSET -0.000001 5.044994 -1.291870
					}
				}
			}
		}
	}
}
MOTION
Frames: 15
Frame Time: 0.016667
-0.419699 23.867392 80.260185 14.958553 3.459077 -132.556418 -13.866836 -9.738255 -1.925018 -6.225357 -4.273735 -1.141482 -6.225353 -4.273738 -1.141478 -4.674860 -3.194088 -0.899433 -2.014437 -12.956439 15.202364 2.244290 11.074837 27.980073 8.896543 -4.613302 -4.369109 65.462036 -29.712658 -7.259077 -13.323919 -75.349657 77.905117 -1.625884 13.362533 44.533479 -8.446403 -6.264347 -7.299337 -57.514188 -24.385737 20.569251 -73.330065 -64.159225 -7.890007 41.883021 21.420312 -26.600098 16.587432 18.173552 -5.753688 6.237272 -2.694344 -5.960114 -2.521291 1.218403 2.676205 -0.365260 0.008851 0.026731 9.305909 35.504502 8.806981 -2.489029 -3.852718 21.795357 1.703368 -9.372850 3.556916 -0.269891 1.034044 -0.071493 
-0.168429 23.712032 80.254128 15.116976 3.355100 -132.677777 -13.846163 -9.760882 -1.888093 -6.220682 -4.287636 -1.134392 -6.220681 -4.287636 -1.134394 -4.671320 -3.204592 -0.894222 -1.956542 -12.869026 15.184523 2.365080 11.224804 27.983794 8.897526 -4.710483 -4.405233 65.407845 -29.747779 -7.122706 -13.347733 -75.347334 77.914638 -1.537534 13.550827 44.679433 -8.415474 -6.330967 -7.316539 -57.545812 -24.380244 20.554614 -73.149700 -64.074066 -8.027741 41.829332 21.365832 -26.720395 16.725130 18.332132 -5.643982 6.275301 -3.458126 -5.789842 -2.480369 1.803929 2.424171 -0.244772 -0.002701 0.064209 9.766335 35.666766 9.154620 -2.638602 -3.887924 22.236856 1.848330 -9.644885 3.555730 -0.189475 1.002024 -0.068020 
0.090703 23.545656 80.226074 15.233644 3.243953 -132.767881 -13.801497 -9.781378 -1.874216 -6.200438 -4.296328 -1.135631 -6.200440 -4.296332 -1.135625 -4.656167 -3.211138 -0.895094 -1.922952 -12.777278 15.159800 2.438996 11.389133 27.965757 8.894393 -4.740861 -4.454138 65.353798 -29.746526 -7.099241 -13.286172 -75.311114 77.905991 -1.392970 13.672458 44.741970 -8.358998 -6.440201 -7.355176 -57.564582 -24.287261 20.454926 -73.299131 -63.773148 -7.861675 41.708185 21.195156 -26.984283 16.796429 18.501941 -5.523573 6.356518 -4.339254 -5.669583 -2.515585 2.525030 2.217270 -0.093893 -0.049854 0.066661 10.225504 35.836630 9.301574 -2.792089 -3.858558 22.559536 1.923534 -9.969250 3.769731 -0.108423 0.924699 -0.061922 
0.391401 23.375700 80.174110 15.281659 3.108292 -132.815747 -13.731970 -9.799875 -1.871043 -6.166685 -4.300257 -1.136705 -6.166682 -4.300260 -1.136708 -4.630869 -3.214132 -0.895709 -1.899623 -12.690215 15.120953 2.487488 11.549524 27.916325 8.906507 -4.741870 -4.501592 65.295365 -29.600865 -7.172252 -13.058885 -75.309290 77.789359 -1.221072 13.759612 44.770831 -8.339240 -6.458746 -7.383332 -57.534235 -24.248826 20.354766 -73.696088 -63.369204 -7.467772 41.522790 21.020846 -27.347067 16.748869 18.618028 -5.426796 6.555792 -5.289285 -5.643468 -2.704029 3.385032 2.041113 0.113304 -0.132034 0.032119 10.687273 35.988636 9.506854 -2.953188 -3.805658 22.728329 1.978528 -10.351201 3.938385 -0.041393 0.835351 -0.055326 
0.740107 23.194763 80.102364 15.253653 2.914736 -132.842084 -13.623659 -9.820367 -1.854960 -6.120216 -4.304848 -1.127068 -6.120216 -4.304850 -1.127070 -4.595965 -3.217752 -0.888191 -1.873044 -12.605639 15.073466 2.538270 11.706090 27.851520 8.951921 -4.729487 -4.536412 65.197079 -29.297663 -7.290994 -12.947231 -75.404612 77.803928 -1.142273 13.858694 44.764445 -8.354002 -6.366149 -7.377086 -57.436126 -24.275018 20.242553 -74.261266 -62.934176 -6.923364 41.292045 20.804968 -27.768520 16.625628 18.654391 -5.335195 6.842695 -6.323642 -5.729526 -3.051447 4.341538 1.918794 0.381090 -0.207731 -0.006103 11.181350 36.122480 9.884277 -3.106139 -3.786238 22.896044 2.030862 -10.804972 3.890721 0.027055 0.772426 -0.054440 
1.130525 22.984819 80.016609 15.151378 2.610792 -132.879295 -13.447889 -9.833226 -1.795863 -6.060345 -4.312467 -1.100070 -6.060341 -4.312463 -1.100069 -4.550902 -3.223838 -0.867599 -1.831008 -12.532441 15.026563 2.615639 11.838389 27.792168 9.025730 -4.733172 -4.568602 65.079764 -28.977419 -7.413041 -12.945785 -75.524332 77.894203 -1.244730 13.941532 44.686567 -8.366624 -6.288739 -7.369317 -57.320730 -24.293325 20.071645 -74.790551 -62.467599 -6.375275 40.987508 20.512443 -28.249568 16.543550 18.607027 -5.207689 7.129178 -7.500443 -5.862103 -3.501386 5.421534 1.693230 0.669545 -0.287168 -0.023057 11.774072 36.181489 10.569146 -3.239456 -3.803381 23.152676 2.079136 -11.312742 3.630722 0.123268 0.739480 -0.059216 
1.545273 22.745632 79.918312 14.962918 2.236163 -132.916451 -13.247914 -9.810274 -1.701981 -5.984385 -4.321777 -1.061055 -5.984383 -4.321777 -1.061050 -4.493686 -3.231327 -0.837898 -1.766118 -12.483263 14.977334 2.729552 11.922172 27.733587 9.090262 -4.815954 -4.687573 64.964094 -28.866408 -7.411831 -12.997267 -75.550239 77.987496 -1.541048 14.064229 44.570048 -8.382824 -6.281607 -7.399933 -57.208660 -24.286746 19.877235 -75.172010 -61.904122 -5.940051 40.606199 20.095854 -28.858471 16.507751 18.520181 -5.071735 7.320010 -8.849210 -5.946723 -3.969300 6.543320 1.344174 0.944652 -0.308916 0.003691 12.377786 36.150555 11.519365 -3.317799 -3.809050 23.472288 2.105151 -11.865891 3.295634 0.261359 0.720888 -0.067426 
1.994968 22.445608 79.810356 14.686165 1.742636 -132.889568 -12.964502 -9.812854 -1.620605 -5.879061 -4.335048 -1.021144 -5.879061 -4.335046 -1.021144 -4.414455 -3.241833 -0.807353 -1.697105 -12.463710 14.911141 2.838175 11.953754 27.639578 9.162169 -4.871127 -4.844964 64.830551 -28.931182 -7.340467 -12.890120 -75.495788 77.885740 -1.974784 14.235704 44.467878 -8.408380 -6.301332 -7.479884 -57.125407 -24.258394 19.651334 -75.509141 -61.087573 -5.502611 40.073027 19.489380 -29.705835 16.487552 18.232114 -5.077986 7.524355 -10.153596 -5.952395 -4.480760 7.660843 0.917664 1.173047 -0.308577 0.055710 12.976734 35.984274 12.660708 -3.324017 -3.753913 23.710778 2.071188 -12.508583 2.983551 0.438589 0.717068 -0.077054 
2.525578 22.102510 79.705223 14.304557 1.151751 -132.786459 -12.605863 -9.823908 -1.574447 -5.736558 -4.345742 -0.987973 -5.736554 -4.345740 -0.987971 -4.307403 -3.250390 -0.781568 -1.637628 -12.487993 14.837911 2.916498 11.908523 27.520948 9.220884 -4.914133 -4.986611 64.636662 -29.028092 -7.180892 -12.370748 -75.505494 77.370819 -2.537617 14.489235 44.394532 -8.469909 -6.241330 -7.514951 -57.047697 -24.291245 19.381287 -76.008456 -59.984825 -4.850018 39.351930 18.733250 -30.805424 16.296150 17.735624 -5.270556 7.878477 -11.458149 -6.079451 -4.893568 8.863499 0.725153 1.281784 -0.323446 0.031539 13.521790 35.625365 14.061186 -3.269647 -3.575312 23.689610 1.926962 -13.182006 2.703664 0.685506 0.670902 -0.084693 
3.166215 21.731007 79.611115 13.784858 0.507857 -132.597509 -12.210706 -9.854570 -1.539807 -5.557278 -4.356578 -0.959515 -5.557278 -4.356579 -0.959509 -4.172810 -3.259042 -0.759046 -1.584272 -12.566199 14.749624 2.965744 11.768600 27.362235 9.246730 -4.957663 -5.155312 64.363509 -29.098013 -6.932312 -11.431771 -75.614675 76.490592 -3.242228 14.629454 44.202870 -8.517530 -6.225752 -7.554525 -56.941160 -24.324049 18.940637 -76.476044 -58.757686 -4.187803 38.392282 17.950092 -31.990694 15.958238 17.058242 -5.562130 8.252258 -12.780039 -6.182720 -5.183912 10.068140 0.530521 1.305759 -0.285456 -0.030433 13.935731 35.065826 15.638847 -3.187940 -3.302407 23.456377 1.622672 -13.769981 2.473335 1.031753 0.551446 -0.086529 
3.906668 21.317570 79.532372 13.165692 -0.190472 -132.324410 -11.725279 -9.866989 -1.511994 -5.344468 -4.351579 -0.934154 -5.344470 -4.351578 -0.934155 -4.013099 -3.255825 -0.738472 -1.552995 -12.739749 14.653618 2.949982 11.460412 27.164239 9.245592 -5.005773 -5.289780 64.054293 -29.168125 -6.748618 -10.409735 -75.698297 75.595420 -3.991452 14.841998 43.959097 -8.575874 -6.207524 -7.527040 -56.839270 -24.455815 18.400875 -76.814083 -57.646995 -3.625476 37.265198 17.269712 -33.077626 15.577445 16.216290 -6.072727 8.546785 -14.132252 -6.201118 -5.387279 11.300139 0.343744 1.308819 -0.214077 -0.043569 14.265464 34.379119 17.117620 -3.137496 -3.039812 23.314386 1.204407 -14.278370 2.300758 1.423519 0.448150 -0.091946 
4.732304 20.884012 79.470490 12.458053 -0.846749 -131.982737 -11.189184 -9.803557 -1.509373 -5.112577 -4.322865 -0.924108 -5.112576 -4.322864 -0.924111 -3.839171 -3.234704 -0.729041 -1.555448 -12.969939 14.578163 2.867145 11.052389 26.982934 9.206000 -5.013450 -5.359907 63.784603 -29.275301 -6.729525 -9.532787 -75.712394 74.868634 -4.762991 15.041029 43.636569 -8.709184 -6.124493 -7.404109 -56.745936 -24.624357 17.911801 -77.051828 -56.924955 -3.159664 36.122316 16.853162 -33.894950 15.126893 15.329127 -6.599591 8.744018 -15.552173 -6.146681 -5.528436 12.539399 0.043298 1.318052 -0.104372 -0.021367 14.449701 33.690393 18.333421 -3.092985 -2.885002 23.407992 0.779090 -14.715772 2.164762 1.740396 0.400564 -0.097877 
5.620032 20.416779 79.421074 11.667830 -1.471929 -131.576149 -10.615031 -9.706090 -1.518658 -4.873201 -4.279109 -0.918087 -4.873197 -4.279106 -0.918089 -3.659644 -3.202265 -0.722478 -1.565328 -13.197356 14.491332 2.767743 10.652594 26.778757 9.115552 -5.000478 -5.477687 63.585906 -29.361689 -6.794814 -9.000804 -75.755295 74.484886 -5.551638 15.263159 43.279067 -8.856471 -6.054272 -7.305565 -56.691120 -24.744981 17.493259 -77.070762 -56.635509 -2.988533 35.013247 16.703555 -34.370229 14.627019 14.336393 -7.145709 8.918590 -16.926911 -5.888848 -5.784587 13.712036 -0.521034 1.388052 0.042932 0.067110 14.512841 32.964341 19.327697 -3.078007 -2.819771 23.652552 0.384337 -15.076329 2.123680 1.965923 0.403539 -0.105244 
6.593388 19.932129 79.387108 10.759291 -2.038009 -131.138143 -10.070151 -9.597038 -1.492932 -4.634945 -4.232149 -0.897472 -4.634951 -4.232153 -0.897473 -3.480858 -3.167535 -0.704995 -1.557444 -13.400619 14.346281 2.686196 10.302193 26.476856 9.063676 -4.982495 -5.596533 63.399660 -29.269977 -6.924098 -8.474058 -75.841662 74.112074 -6.322263 15.535622 42.953369 -8.934052 -6.018991 -7.237012 -56.651491 -24.857999 17.020237 -76.905710 -56.601327 -3.047677 33.910571 16.772831 -34.651315 14.014810 13.179076 -7.615477 9.059224 -18.161203 -5.604595 -6.043030 14.799376 -1.076876 1.477899 0.198999 0.102194 14.352218 32.080774 20.274708 -3.059792 -2.681984 23.867749 0.060209 -15.466096 2.107916 2.106262 0.488139 -0.117483 
7.681729 19.445734 79.382645 9.727604 -2.553056 -130.662270 -9.555300 -9.469143 -1.446630 -4.396226 -4.177299 -0.861847 -4.396228 -4.177300 -0.861845 -3.301614 -3.126976 -0.676236 -1.544491 -13.597302 14.144971 2.596027 9.971076 26.073327 9.067461 -4.926701 -5.663942 63.228113 -29.062612 -7.169719 -7.772036 -75.925633 73.568999 -7.109487 15.670641 42.550064 -8.996535 -5.916004 -7.141800 -56.585860 -25.057917 16.562794 -76.642051 -56.555151 -3.207577 32.633431 16.901458 -34.991199 13.298709 11.776921 -8.037376 9.083222 -19.149829 -5.332674 -6.156753 15.791365 -1.486443 1.540828 0.338062 0.069181 13.886153 30.988910 21.147686 -2.970046 -2.428937 23.972219 -0.289484 -15.803849 2.075358 2.219889 0.567590 -0.129885 
